<?xml version="1.0" standalone="no"?>
<!DOCTYPE svg PUBLIC "-//W3C//DTD SVG 20010904//EN"
 "http://www.w3.org/TR/2001/REC-SVG-20010904/DTD/svg10.dtd">
<svg version="1.0" xmlns="http://www.w3.org/2000/svg"
 width="1536.000000pt" height="1024.000000pt" viewBox="0 0 1536.000000 1024.000000"
 preserveAspectRatio="xMidYMid meet">

<g transform="translate(0.000000,1024.000000) scale(0.100000,-0.100000)"
fill="#000000" stroke="none">
<path d="M4450 6853 c-246 -38 -369 -74 -520 -154 -175 -93 -308 -206 -418
-353 -119 -160 -192 -323 -238 -531 -24 -109 -24 -373 0 -503 79 -434 364
-818 750 -1014 294 -149 659 -201 1010 -143 80 13 96 13 140 -1 67 -19 398
-96 556 -128 241 -48 596 -91 990 -118 256 -18 1620 -18 1855 0 1124 85 1765
204 2925 544 147 43 347 119 505 193 108 50 103 51 -50 12 -55 -14 -126 -28
-157 -30 l-58 -6 0 130 c0 95 -3 131 -12 134 -7 2 -268 5 -580 7 -311 2 -569
6 -573 9 -3 3 -9 399 -13 880 l-7 874 -274 3 c-213 2 -276 -1 -283 -10 -4 -7
-8 -406 -8 -886 l0 -873 -528 2 c-291 1 -543 4 -560 7 l-32 4 0 219 0 219 468
2 467 3 0 240 0 240 -467 3 -468 2 0 165 0 165 530 0 529 0 7 35 c3 20 4 113
0 208 -3 94 -5 191 -6 215 l0 42 -1133 0 -1133 0 -195 -231 c-107 -128 -229
-275 -272 -328 -43 -53 -84 -97 -90 -98 -7 -1 -59 55 -117 124 -58 70 -183
218 -278 330 l-173 203 -345 0 c-313 0 -345 -2 -351 -17 -4 -9 2 -31 13 -49
17 -29 249 -312 708 -864 80 -96 146 -177 146 -180 0 -3 -116 -140 -258 -306
-141 -165 -326 -382 -410 -482 -84 -100 -157 -182 -161 -182 -5 0 -14 6 -20
14 -9 10 1 34 43 105 210 355 244 849 86 1244 -160 398 -491 717 -878 847
-147 49 -293 70 -476 69 -89 -1 -172 -3 -186 -6z m375 -58 c296 -45 537 -155
727 -334 92 -86 152 -169 217 -300 67 -133 99 -217 134 -351 27 -104 30 -130
31 -275 0 -118 -4 -182 -17 -245 -21 -98 -66 -250 -74 -250 -3 0 -2 8 2 18 24
62 66 259 75 351 23 241 -40 507 -180 766 -79 146 -59 141 -193 40 -65 -48
-117 -92 -117 -98 0 -5 13 -33 29 -61 44 -78 99 -234 116 -331 35 -202 0 -461
-86 -639 -16 -33 -25 -62 -21 -65 4 -3 30 -21 57 -40 103 -71 215 -154 215
-158 0 -3 -24 12 -52 33 -29 21 -93 66 -143 99 -49 33 -93 62 -97 65 -4 3 8
43 28 87 104 241 121 503 47 738 -28 90 -111 267 -156 334 -97 142 -292 275
-484 330 -37 11 -61 20 -52 20 59 3 251 -81 354 -154 67 -48 171 -153 200
-202 11 -18 23 -33 28 -33 17 0 227 165 227 179 0 23 -160 173 -245 229 -144
95 -314 165 -498 203 -132 28 -396 30 -529 5 -401 -76 -729 -311 -896 -641
-31 -63 -72 -188 -93 -290 -17 -77 -17 -322 0 -400 32 -154 96 -305 186 -440
53 -80 224 -265 244 -265 6 0 53 33 105 74 52 40 105 81 117 90 l23 16 -70 72
c-114 118 -182 236 -230 395 -23 76 -27 109 -29 243 l-3 155 8 -145 c12 -215
49 -331 165 -505 86 -129 248 -271 395 -345 200 -101 471 -133 706 -84 42 8
78 13 81 11 8 -9 -136 -47 -218 -59 -159 -22 -400 22 -564 105 -78 39 -163 93
-197 124 -31 29 -20 35 -161 -75 l-108 -84 78 -54 c162 -113 321 -187 513
-237 99 -25 140 -30 295 -36 145 -5 164 -7 100 -11 -189 -12 -429 26 -603 94
-172 68 -366 192 -505 325 -259 247 -402 612 -367 938 23 210 86 390 193 548
63 93 220 245 323 312 275 180 639 258 969 208z m3425 -184 c0 -18 -38 -21
-284 -21 l-253 0 -160 -192 c-271 -326 -385 -461 -420 -501 l-34 -38 -22 28
c-40 51 -280 338 -432 516 l-150 176 -233 0 -232 1 106 -127 c58 -71 181 -220
273 -332 91 -112 226 -276 299 -364 72 -88 132 -165 132 -171 0 -10 -49 -72
-280 -352 -60 -73 -178 -213 -452 -536 l-108 -128 244 0 244 0 146 175 c81 96
149 175 152 175 5 0 -19 -30 -210 -260 l-79 -95 -264 -5 c-144 -3 -263 -2
-263 1 0 3 21 30 47 60 41 48 387 470 453 553 14 17 99 119 191 226 l165 196
-199 239 c-261 314 -483 577 -580 687 l-78 88 268 0 268 0 76 -93 c145 -176
452 -542 489 -583 l38 -41 110 142 c126 162 397 492 450 548 l36 37 273 0
c154 0 273 -4 273 -9z m1570 -6 c0 -13 -87 -15 -725 -15 l-725 0 0 -1009 c0
-663 -3 -1012 -10 -1016 -7 -4 -10 340 -10 1024 l0 1031 735 0 c647 0 735 -2
735 -15z m628 -857 l-3 -873 -2 858 -3 857 -175 0 -175 0 -1 -992 c-1 -546 -5
-1004 -9 -1018 -4 -14 -8 230 -9 541 -1 311 -4 776 -8 1032 l-6 467 196 0 197
0 -2 -872z m-2258 792 c-17 -22 -37 -43 -43 -47 -11 -6 4 15 47 65 33 37 30
25 -4 -18z m1630 -90 l0 -130 -535 0 -535 0 0 -285 c0 -279 0 -285 19 -275 31
16 924 14 919 -2 -4 -10 -110 -14 -476 -16 l-472 -2 0 295 0 295 535 0 535 0
0 125 c0 69 2 125 5 125 3 0 5 -58 5 -130z m-5122 93 c-32 -2 -84 -2 -115 0
-32 2 -6 3 57 3 63 0 89 -1 58 -3z m-220 -13 c-190 -32 -362 -124 -499 -267
-63 -64 -169 -213 -169 -236 0 -6 -3 -8 -6 -4 -4 3 6 28 22 54 85 146 235 294
370 365 97 51 239 97 294 96 31 0 30 -1 -12 -8z m325 3 c-7 -2 -21 -2 -30 0
-10 3 -4 5 12 5 17 0 24 -2 18 -5z m3469 -1291 c2 -314 0 -572 -3 -572 -4 0
-35 35 -70 78 -35 42 -136 162 -224 267 -309 365 -445 529 -445 534 0 4 61 80
136 171 76 91 241 293 368 449 l231 284 2 -319 c2 -175 4 -577 5 -892z m-3417
1088 c299 -66 518 -301 587 -630 35 -165 13 -378 -57 -550 -15 -36 -30 -69
-35 -73 -4 -5 -54 19 -111 54 -154 93 -208 112 -295 107 -60 -4 -78 -10 -116
-37 -126 -90 -129 -257 -8 -393 27 -31 50 -59 50 -62 0 -10 -183 -7 -246 5
-212 37 -443 170 -568 326 -58 74 -117 187 -148 283 -19 64 -23 96 -23 215 0
118 4 152 23 215 90 288 312 491 597 545 105 20 246 18 350 -5z m3105 -14 c0
-2 -8 -10 -17 -17 -16 -13 -17 -12 -4 4 13 16 21 21 21 13z m-42 -53 c-8 -10
-59 -72 -113 -138 -130 -158 -316 -375 -321 -375 -5 0 6 14 265 323 95 114
176 207 179 207 3 0 -2 -8 -10 -17z m-4138 -309 c-10 -27 -19 -43 -20 -37 0
16 31 95 36 90 2 -2 -5 -25 -16 -53z m-43 -156 c-3 -8 -6 -5 -6 6 -1 11 2 17
5 13 3 -3 4 -12 1 -19z m3849 -450 c93 -112 247 -297 343 -413 96 -115 196
-234 222 -263 27 -29 58 -66 69 -82 l21 -30 -53 2 c-45 1 -47 2 -14 5 l39 4
-35 37 c-61 64 -508 592 -642 759 l-130 161 -30 -38 c-17 -21 -70 -82 -118
-135 -49 -53 -88 -100 -88 -103 0 -4 62 -84 138 -178 75 -94 173 -215 217
-270 43 -54 104 -128 134 -164 l54 -65 191 -5 191 -6 -193 -2 -192 -2 -280
337 c-155 185 -279 342 -278 349 3 14 250 303 259 303 4 1 83 -90 175 -201z
m2087 150 c-2 -5 -211 -8 -464 -8 l-459 0 0 -305 c0 -210 -3 -305 -11 -305 -7
0 -9 94 -7 307 l3 307 25 7 c34 9 919 6 913 -3z m-4627 -348 c86 -42 171 -113
875 -726 53 -46 102 -98 109 -114 19 -45 6 -99 -31 -135 l-32 -30 26 33 c20
25 27 45 27 77 0 54 10 44 -310 321 -556 482 -658 562 -730 571 -81 11 -140
-29 -140 -95 0 -59 36 -103 215 -267 24 -22 22 -21 -12 4 -76 58 -190 170
-207 205 -33 69 -16 128 48 167 44 27 93 24 162 -11z m1834 -123 c0 -2 -10
-12 -22 -23 l-23 -19 19 23 c18 21 26 27 26 19z m728 -599 l27 -28 969 0 c567
-1 965 -4 960 -10 -28 -27 -505 -127 -829 -175 -325 -47 -909 -81 -1193 -70
-626 26 -1031 81 -1332 182 -203 68 -204 68 116 71 l282 2 251 316 252 315
235 -288 c130 -158 248 -300 262 -315z m-1787 545 c-12 -20 -14 -14 -5 12 4 9
9 14 11 11 3 -2 0 -13 -6 -23z m1019 4 c0 -2 -12 -14 -27 -28 l-28 -24 24 28
c23 25 31 32 31 24z m3060 -147 c0 -6 -106 -10 -297 -11 -164 0 -426 -3 -582
-5 -248 -4 -287 -7 -305 -22 -12 -9 -72 -62 -134 -117 l-113 -100 593 -5 593
-5 -610 -3 -610 -2 30 29 c17 16 83 79 149 140 l119 111 583 0 c383 0 584 -3
584 -10z m1728 0 c-2 -8 -188 -11 -586 -10 l-583 0 -97 -87 c-54 -49 -114
-102 -135 -120 -20 -18 -37 -35 -37 -38 0 -2 118 -6 263 -8 l262 -2 -280 -3
-280 -2 145 140 145 139 593 0 c409 1 593 -2 590 -9z m-6368 -209 c52 -42 192
-156 310 -253 119 -96 231 -185 250 -197 19 -11 30 -21 23 -21 -17 0 -38 16
-603 476 -36 29 -85 72 -110 94 -40 37 -41 38 -5 10 22 -18 83 -66 135 -109z
m6352 -53 c-6 -6 -7 0 -4 19 5 21 7 23 10 9 2 -10 0 -22 -6 -28z m-1552 -122
c0 -11 -352 -117 -573 -172 -636 -159 -1166 -224 -1814 -224 -518 0 -1008 57
-1349 155 -46 14 -87 25 -91 25 -3 0 -4 2 -1 5 3 3 50 -6 104 -19 357 -90 814
-136 1354 -136 619 0 1092 54 1740 200 189 42 596 153 609 165 5 6 21 6 21 1z
m-5107 -63 c-7 -2 -21 -2 -30 0 -10 3 -4 5 12 5 17 0 24 -2 18 -5z"/>
</g>
</svg>
