<?xml version="1.0" standalone="no"?>
<!DOCTYPE svg PUBLIC "-//W3C//DTD SVG 20010904//EN"
 "http://www.w3.org/TR/2001/REC-SVG-20010904/DTD/svg10.dtd">
<svg version="1.0" xmlns="http://www.w3.org/2000/svg"
 width="1536.000000pt" height="1024.000000pt" viewBox="0 0 1536.000000 1024.000000"
 preserveAspectRatio="xMidYMid meet">

<g transform="translate(0.000000,1024.000000) scale(0.100000,-0.100000)"
fill="#000000" stroke="none">
<path d="M4479 6836 c-2 -2 -35 -7 -74 -11 -142 -14 -398 -109 -545 -203 -250
-158 -457 -420 -543 -687 -43 -132 -57 -223 -57 -368 0 -200 40 -385 120 -552
21 -44 44 -97 50 -118 8 -26 21 -43 39 -50 14 -7 27 -20 29 -29 4 -25 -15 -23
-23 2 -3 11 -10 20 -15 20 -14 0 -5 -44 13 -70 9 -14 17 -29 17 -35 0 -10 47
-70 100 -125 14 -15 46 -41 73 -59 26 -18 45 -36 42 -40 -7 -12 22 -34 37 -28
8 4 7 6 -4 6 -41 2 -10 30 40 37 12 1 22 -2 22 -7 0 -5 -9 -9 -19 -9 -14 0
-19 -6 -18 -20 1 -11 7 -20 14 -20 7 0 42 -16 78 -36 36 -20 65 -32 65 -28 0
4 6 0 13 -9 6 -9 41 -28 75 -42 35 -14 81 -37 103 -50 21 -14 45 -25 52 -25 8
0 40 -9 73 -21 32 -12 75 -25 94 -29 19 -4 89 -20 155 -34 102 -23 155 -28
360 -35 132 -4 284 -7 338 -5 53 2 97 0 97 -5 0 -4 51 -8 113 -8 108 -1 214
-19 262 -46 11 -6 22 -12 25 -12 7 0 67 -24 106 -41 73 -32 155 -46 228 -39
87 9 95 9 174 -3 52 -7 64 -6 71 6 5 10 18 13 34 10 14 -3 28 0 30 6 5 11 257
4 307 -10 59 -15 700 -31 1155 -28 461 3 551 5 750 19 44 3 143 10 221 15 78
5 163 14 190 19 51 10 274 23 454 26 133 2 287 19 415 44 55 10 154 26 220 35
120 17 243 46 300 72 32 15 181 41 335 59 19 2 49 6 65 9 17 3 50 8 74 11 24
3 48 8 52 11 13 8 190 36 222 35 15 0 25 4 22 9 -7 12 12 23 26 14 8 -4 7 -9
-2 -15 -11 -7 -11 -9 2 -9 9 0 28 9 41 20 36 27 129 46 268 52 8 0 69 11 134
23 98 19 123 28 138 47 9 13 18 31 18 41 0 10 7 31 15 48 15 28 15 30 -6 37
-21 8 -22 13 -20 138 0 71 -3 136 -9 144 -8 13 -85 15 -573 18 l-564 2 -7 743
c-6 702 -11 923 -22 975 l-4 22 -254 0 -253 0 -12 -26 c-24 -54 -33 -189 -27
-434 3 -135 7 -478 8 -763 l3 -518 -574 1 c-316 0 -576 2 -578 3 -6 7 -16 355
-10 378 13 51 20 51 471 56 231 3 430 9 443 14 l23 9 0 219 c0 165 -3 222 -12
228 -7 4 -218 10 -468 13 l-455 5 -3 161 -2 161 27 11 c18 8 199 13 528 16
275 2 508 7 518 11 20 8 19 3 17 230 -1 108 -6 179 -13 195 l-12 25 -1090 3
c-600 1 -1104 0 -1121 -3 -24 -4 -53 -32 -140 -132 -60 -70 -133 -156 -162
-192 -66 -81 -241 -297 -263 -324 -16 -19 -17 -19 -57 24 -22 25 -91 106 -154
181 -108 131 -267 319 -341 403 l-35 40 -300 0 -300 0 -26 -26 -26 -26 120
-164 c66 -90 150 -203 188 -250 102 -131 337 -422 353 -439 33 -33 149 -194
149 -206 0 -14 -48 -76 -154 -200 -34 -39 -110 -131 -171 -205 -60 -73 -166
-201 -235 -284 -69 -83 -143 -174 -165 -203 -47 -62 -64 -64 -109 -9 -30 37
-30 38 -13 65 10 15 25 43 33 62 8 19 22 51 30 70 9 19 19 44 24 55 23 49 51
135 49 147 -2 7 2 29 8 48 26 78 44 237 45 379 0 160 -22 283 -81 459 -67 198
-229 438 -391 579 -279 242 -554 343 -936 343 -83 0 -153 -2 -155 -4z m360
-31 c302 -44 541 -166 766 -390 80 -79 124 -133 159 -194 256 -437 259 -911 9
-1333 l-46 -76 -32 32 c-18 18 -80 72 -139 121 -58 49 -106 89 -106 89 0 1 13
33 29 72 62 151 76 232 75 424 0 161 -2 182 -27 265 -16 50 -51 137 -80 195
-28 58 -52 109 -52 114 0 4 56 44 125 88 135 86 174 117 150 119 -8 1 -21 2
-27 3 -7 0 -50 37 -95 82 -163 158 -341 257 -567 314 -282 71 -552 58 -822
-40 -162 -58 -391 -209 -499 -327 -221 -242 -322 -527 -293 -830 19 -197 85
-374 209 -564 55 -84 208 -243 227 -236 6 3 63 40 126 82 l113 77 -65 67 c-88
91 -141 166 -194 278 -26 54 -48 90 -52 84 -20 -31 -101 23 -101 68 0 46 66
119 72 79 1 -7 5 64 8 157 8 177 18 230 67 354 74 186 243 365 440 464 112 57
215 79 390 85 129 3 177 1 239 -13 169 -38 333 -127 456 -248 44 -43 77 -81
74 -85 -4 -3 -41 28 -84 70 -42 41 -98 89 -124 106 -70 48 -192 100 -298 129
-82 22 -115 26 -241 25 -160 0 -195 -7 -354 -67 -331 -127 -536 -430 -536
-792 0 -135 8 -182 49 -310 33 -103 80 -192 145 -276 122 -157 372 -314 577
-362 42 -10 133 -20 205 -22 118 -4 139 -2 225 22 52 14 107 28 122 31 25 6
24 8 -40 64 -101 87 -190 182 -201 213 -26 69 3 136 72 167 92 42 143 23 308
-117 327 -276 809 -694 828 -718 65 -83 -15 -216 -129 -214 -57 1 -87 20 -275
174 -81 66 -177 145 -214 175 -37 30 -95 79 -127 109 -57 51 -57 52 -9 15 28
-21 73 -56 100 -79 97 -81 353 -270 416 -307 53 -32 73 -38 120 -38 52 0 60 3
83 31 28 33 32 59 16 89 -6 11 -99 95 -208 187 -109 92 -252 215 -317 273
-157 140 -261 227 -372 312 -104 79 -153 94 -211 64 -39 -20 -52 -44 -52 -94
0 -33 9 -49 63 -113 35 -41 95 -103 133 -139 38 -36 68 -64 66 -63 -2 1 -19
-9 -38 -22 -90 -61 -252 -89 -431 -75 -155 11 -188 19 -343 79 -47 18 -52 19
-33 4 l23 -18 -60 -38 c-33 -20 -64 -37 -70 -37 -6 0 -27 -9 -47 -20 -21 -11
-34 -20 -29 -20 5 0 7 -3 4 -6 -3 -3 -26 4 -50 16 -68 33 -13 -6 62 -45 103
-52 187 -84 290 -109 303 -76 583 -56 836 59 41 19 74 32 74 30 0 -11 -122
-69 -207 -99 -155 -54 -275 -70 -467 -63 -293 11 -491 78 -738 251 -327 229
-532 563 -568 925 -54 538 336 1055 925 1226 191 55 393 69 594 40z m1706
-222 c22 -28 537 -644 562 -673 3 -3 9 3 14 12 5 10 69 90 142 179 240 294
379 464 403 492 l24 27 296 0 c275 0 295 -1 283 -17 -8 -9 -30 -23 -49 -31
-54 -22 -161 -139 -355 -386 -99 -126 -220 -277 -269 -335 -97 -115 -276 -299
-276 -283 0 5 8 16 17 23 23 20 193 225 230 279 17 25 68 88 114 140 46 53
158 185 249 295 91 110 179 214 196 231 l30 32 -220 4 -221 5 -33 -36 c-19
-20 -85 -99 -147 -176 -63 -77 -182 -223 -264 -325 -83 -101 -151 -188 -151
-192 0 -25 -32 8 -142 145 -67 83 -179 219 -248 301 -69 82 -149 178 -177 212
l-53 63 -222 3 c-123 2 -225 2 -227 1 -4 -2 121 -153 193 -233 27 -30 80 -96
117 -146 37 -49 144 -184 239 -298 224 -272 254 -312 244 -328 -19 -31 -164
-212 -368 -458 -121 -146 -262 -317 -314 -380 -52 -63 -102 -121 -110 -127
-13 -11 29 -13 219 -13 l234 0 30 38 c65 82 500 599 523 622 24 23 23 22 -3
-15 -64 -89 -511 -645 -534 -663 -22 -18 -554 -15 -547 3 2 7 118 149 257 316
139 167 307 369 373 449 67 80 143 168 169 197 l49 52 -40 43 c-21 24 -206
243 -410 488 -203 245 -386 456 -406 469 -20 13 -36 26 -36 30 0 3 132 5 292
3 l293 -2 30 -37z m3355 28 c0 -5 -12 -19 -27 -31 -27 -21 -28 -24 -31 -146
l-4 -124 -541 0 c-368 1 -542 -3 -541 -10 1 -5 2 -124 2 -262 l2 -253 477 3
c263 2 489 0 502 -3 24 -6 24 -7 -12 -32 l-37 -26 0 -129 0 -128 -465 0 -465
0 0 -280 c0 -180 -4 -280 -10 -280 -6 0 -10 103 -10 290 l0 290 193 1 c105 1
315 1 465 -1 l272 -2 0 126 0 126 -465 0 -465 0 0 295 0 295 545 0 545 0 0
120 0 120 -725 2 -725 3 0 -1000 c0 -599 -4 -1006 -10 -1015 -5 -8 -12 -11
-16 -8 -4 4 -9 471 -12 1038 l-5 1030 782 0 c473 0 781 -4 781 -9z m614 -6
c-4 -9 -15 -20 -25 -26 -18 -9 -19 -37 -19 -838 0 -740 -2 -830 -16 -842 -14
-11 -15 25 -13 387 1 219 1 598 0 841 l-1 442 -165 3 -165 3 0 -978 c0 -650 3
-976 10 -972 6 3 10 1 10 -4 0 -6 -4 -11 -10 -11 -5 0 -12 -11 -16 -25 -3 -14
-10 -25 -14 -25 -7 0 -16 718 -23 1733 l-2 327 227 0 c200 0 227 -2 222 -15z
m-2260 -256 c3 -17 6 -410 6 -872 l0 -841 -31 30 c-17 16 -70 74 -117 128 -48
55 -141 161 -207 235 -101 115 -249 286 -368 427 l-28 33 27 50 c15 27 37 60
48 73 19 20 148 180 314 387 77 97 106 132 117 145 6 6 33 38 60 71 65 79 150
165 162 165 6 0 13 -14 17 -31z m-3399 -10 c33 -5 69 -14 80 -18 11 -5 45 -19
75 -31 30 -12 67 -31 82 -41 14 -11 31 -19 36 -19 6 0 43 -33 84 -73 101 -101
190 -267 223 -417 40 -182 28 -388 -33 -570 -29 -90 -39 -110 -53 -110 -6 0
-48 25 -94 55 -162 108 -240 134 -335 114 -138 -30 -206 -192 -136 -324 14
-28 40 -69 58 -92 17 -24 28 -46 24 -50 -4 -5 -58 -7 -119 -7 -120 1 -264 32
-349 75 -83 41 -213 135 -276 199 -61 61 -176 237 -188 288 -4 12 -10 22 -14
22 -14 0 -50 211 -44 264 1 17 5 55 8 85 5 51 33 140 47 151 3 3 12 22 18 43
7 20 16 37 21 37 4 0 13 14 19 30 14 43 75 117 138 170 30 25 60 50 67 57 26
24 123 80 171 100 182 75 313 91 490 62z m2700 -966 c66 -77 193 -227 281
-334 89 -107 214 -256 278 -331 64 -76 116 -140 116 -143 0 -9 -548 -5 -552 4
-3 9 -124 153 -368 441 -64 74 -132 156 -153 181 l-37 46 97 115 c54 63 116
136 137 163 l39 48 21 -25 c12 -14 75 -88 141 -165z m-245 173 c0 -2 -8 -10
-17 -17 -16 -13 -17 -12 -4 4 13 16 21 21 21 13z m-116 -568 c65 -76 185 -222
308 -374 60 -73 119 -142 134 -153 25 -20 37 -20 647 -20 680 0 971 -11 1039
-38 24 -9 69 -17 101 -17 31 0 57 -3 57 -7 0 -9 -53 -28 -110 -39 -261 -52
-343 -70 -355 -79 -5 -5 -50 -12 -99 -15 -49 -4 -93 -9 -98 -12 -17 -11 4 -24
35 -23 31 1 31 1 7 10 -17 6 1 7 54 4 104 -5 400 46 696 121 331 84 404 111
384 146 -4 7 -4 10 1 6 4 -4 14 0 22 8 18 18 58 12 115 -17 21 -11 45 -19 55
-19 21 0 -80 -106 -108 -113 -11 -3 -17 -1 -14 3 3 5 -3 8 -12 8 -10 -1 -36 4
-59 10 -34 10 -50 9 -100 -7 -55 -18 -240 -69 -329 -91 -51 -13 -209 -47 -442
-95 -126 -27 -183 -43 -183 -52 0 -7 -4 -13 -10 -13 -5 0 -20 -10 -32 -23 -28
-28 -66 -38 -175 -43 -53 -3 -83 -1 -83 6 0 5 -19 10 -42 11 -33 0 -38 2 -23
9 18 8 17 9 -8 9 -15 1 -125 -9 -245 -21 -355 -35 -1090 -29 -1372 12 -354 51
-515 86 -664 142 -51 19 -92 41 -98 52 -9 16 -8 18 8 12 172 -66 496 -134 744
-155 662 -58 1310 -42 1682 40 59 13 77 44 21 36 -249 -38 -705 -69 -1003 -70
-543 -1 -989 50 -1300 150 -146 46 -215 77 -234 105 -32 45 -27 47 162 48 240
1 300 7 339 33 18 12 33 25 33 29 0 4 22 33 48 65 26 32 79 96 117 143 38 47
71 85 75 85 9 0 60 62 99 120 36 54 122 125 152 125 10 0 38 -24 63 -52z
m2743 -124 c2 -6 -8 -19 -22 -28 -25 -16 -25 -19 -25 -140 l0 -124 -532 -4
c-293 -2 -623 -1 -732 2 l-199 5 67 59 c37 32 114 102 172 155 l104 96 582 -5
c413 -4 582 -8 585 -16z m1179 16 l575 0 -11 -20 c-6 -12 -22 -25 -34 -30 -32
-12 -36 -27 -36 -150 l0 -108 -602 -4 c-332 -2 -661 -1 -732 2 l-129 5 49 45
c59 54 219 192 276 238 23 18 47 31 55 28 8 -4 273 -6 589 -6z m-7581 -70 c3
-5 1 -10 -4 -10 -6 0 -11 5 -11 10 0 6 2 10 4 10 3 0 8 -4 11 -10z m0 -38 c-3
-3 -11 0 -18 7 -9 10 -8 11 6 5 10 -3 15 -9 12 -12z m105 -13 c0 -5 -7 -9 -15
-9 -8 0 -18 0 -22 -1 -4 0 -9 3 -10 8 -2 4 8 9 22 9 14 1 25 -2 25 -7z m63
-57 c2 7 8 10 12 5 5 -4 4 -12 -1 -17 -12 -12 -44 -3 -44 12 0 6 6 6 14 -1 11
-9 15 -9 19 1z m7204 -268 c-3 -3 -12 -4 -19 -1 -8 3 -5 6 6 6 11 1 17 -2 13
-5z m-140 -30 c-3 -3 -12 -4 -19 -1 -8 3 -5 6 6 6 11 1 17 -2 13 -5z m-97 -21
c-14 -2 -92 -24 -175 -48 -130 -39 -222 -61 -587 -140 -37 -8 -82 -14 -100
-14 -20 1 -25 3 -13 6 11 2 121 27 245 55 329 74 334 75 470 112 69 19 139 34
155 34 26 -1 27 -1 5 -5z m-4500 -93 c0 -5 -7 -7 -15 -4 -8 4 -15 8 -15 10 0
2 7 4 15 4 8 0 15 -4 15 -10z m3675 0 c3 -5 -1 -10 -9 -10 -9 0 -16 5 -16 10
0 6 4 10 9 10 6 0 13 -4 16 -10z m-115 -30 c0 -5 -4 -10 -10 -10 -5 0 -10 5
-10 10 0 6 5 10 10 10 6 0 10 -4 10 -10z m90 -20 c0 -5 -5 -10 -11 -10 -5 0
-7 5 -4 10 3 6 8 10 11 10 2 0 4 -4 4 -10z m-55 -20 c3 -5 -1 -10 -9 -10 -9 0
-16 5 -16 10 0 6 4 10 9 10 6 0 13 -4 16 -10z m-4355 -10 c0 -5 -16 -10 -35
-10 -19 0 -35 5 -35 10 0 6 16 10 35 10 19 0 35 -4 35 -10z m50 -10 c0 -5 -7
-7 -15 -4 -8 4 -12 10 -9 15 6 11 24 2 24 -11z m50 -11 c0 -14 -17 -10 -23 5
-4 10 -1 13 9 9 7 -3 14 -9 14 -14z m4220 11 c0 -5 -6 -10 -14 -10 -7 0 -29
-3 -47 -6 -19 -4 -30 -3 -26 2 4 4 20 10 35 12 15 2 29 5 31 8 8 8 21 4 21 -6z
m-96 -28 c2 -4 -68 -20 -157 -36 -89 -15 -170 -29 -179 -31 -10 -2 -18 0 -18
4 0 8 110 31 245 51 38 6 71 13 74 16 7 7 29 5 35 -4z m-3504 -102 c0 -5 -2
-10 -4 -10 -3 0 -8 5 -11 10 -3 6 -1 10 4 10 6 0 11 -4 11 -10z"/>
<path d="M5749 6128 c5 -13 23 -52 40 -88 17 -36 31 -81 31 -101 0 -31 -6 -40
-42 -66 -52 -37 -142 -83 -162 -83 -8 0 -17 8 -20 18 -3 9 -3 -5 -1 -33 16
-171 16 -305 1 -397 -17 -102 -57 -240 -86 -298 l-18 -35 114 -98 c63 -54 119
-95 124 -92 33 20 132 266 153 380 46 243 44 413 -9 615 -21 82 -115 300 -129
300 -2 0 -1 -10 4 -22z"/>
<path d="M7561 5275 c23 -29 34 -49 22 -42 -5 4 -40 -19 -78 -51 -37 -31 -82
-67 -101 -79 -18 -12 -37 -30 -42 -40 -9 -15 -12 -15 -28 -3 -40 33 42 -69
321 -397 l60 -71 228 -3 c125 -2 227 -3 227 -2 0 2 -73 87 -162 189 -90 103
-181 208 -203 234 -106 125 -215 247 -236 265 l-24 20 16 -20z"/>
<path d="M8618 4083 c7 -3 16 -2 19 1 4 3 -2 6 -13 5 -11 0 -14 -3 -6 -6z"/>
<path d="M8885 4800 c33 -4 55 -7 48 -8 -22 -3 6 -58 47 -91 21 -17 41 -40 45
-51 4 -11 11 -18 16 -15 5 4 9 2 9 -4 0 -5 8 -12 18 -14 9 -3 2 -5 -16 -6 -19
-1 -31 -5 -27 -11 4 -6 157 -10 426 -10 l419 0 0 110 0 110 -522 -2 c-288 -1
-496 -4 -463 -8z"/>
<path d="M8653 4713 c-94 -80 -128 -111 -123 -115 3 -2 21 -1 40 3 25 4 28 7
11 8 -19 1 -21 4 -11 15 6 8 18 12 26 9 8 -3 14 1 14 11 0 9 5 15 12 14 6 -2
16 6 22 17 6 11 29 37 51 57 62 58 34 45 -42 -19z"/>
<path d="M10491 4801 c-10 -6 0 -8 29 -4 41 6 43 5 37 -17 -5 -20 4 -33 51
-76 31 -29 57 -58 57 -64 0 -6 7 -15 15 -20 13 -8 13 -9 0 -14 -8 -2 -22 -7
-30 -9 -8 -3 200 -6 463 -6 l477 -1 0 110 0 110 -542 0 c-312 0 -549 -4 -557
-9z"/>
<path d="M10429 4753 l-24 -28 28 24 c15 14 27 26 27 28 0 8 -8 1 -31 -24z"/>
<path d="M10379 4713 c-13 -16 -12 -17 4 -4 9 7 17 15 17 17 0 8 -8 3 -21 -13z"/>
</g>
</svg>
